<svg xmlns="http://www.w3.org/2000/svg" viewBox="0 0 760 392" width="760" height="392" role="img" aria-labelledby="t d">
  <title id="t">Multi-head attention</title>
  <desc id="d">The input H, of size T by d, is multiplied by W_Q, W_K and W_V to give Q, K and V, each T by d and each cut into four numbered vertical slices of width d_k = d / n_h. Slice r of Q, K and V goes to head r. Each of the four heads runs masked scaled dot-product attention and produces a lower-triangular T by T weight matrix A^(r) and an output slice V-bar^(r). The four output slices are placed side by side, concatenated into a T by d block, and multiplied by W_proj to give MHA(H), again T by d.</desc>
  <style>
    text { font-family: Inter, system-ui, -apple-system, "Segoe UI", Roboto, Helvetica, Arial, sans-serif; font-size: 15px; fill: #1f2933; }
    .m { font-family: "Source Serif 4", Georgia, "Times New Roman", serif; }
    .s { font-family: Inter, system-ui, -apple-system, "Segoe UI", Roboto, Helvetica, Arial, sans-serif; }
    .i { font-style: italic; }
    .b { font-weight: 600; }
    .mono { font-family: ui-monospace, SFMono-Regular, Menlo, Consolas, "Liberation Mono", monospace; }
    .note { font-size: 13.5px; fill: #52606d; }
    .acc { fill: #b3541e; }
    .box { fill: #eef2f6; stroke: #16324f; stroke-width: 1.5; }
    .abox { fill: #f8e9de; stroke: #b3541e; stroke-width: 1.5; }
    .dim { fill: #f4f6f9; stroke: #9aa5b1; stroke-width: 1.5; stroke-dasharray: 4 3; }
    .ln { fill: none; stroke: #16324f; stroke-width: 1.5; }
    .aln { fill: none; stroke: #b3541e; stroke-width: 2.5; }
    .dln { fill: none; stroke: #9aa5b1; stroke-width: 1.5; stroke-dasharray: 4 3; }
    .rule { fill: none; stroke: #c5ced8; stroke-width: 1.5; }
    .op { fill: #ffffff; stroke: #16324f; stroke-width: 1.5; }
    .panel { fill: #fafbfc; stroke: #c5ced8; stroke-width: 1.5; }
  </style>
  <defs>
    <marker id="a" viewBox="0 0 10 10" refX="9" refY="5" markerWidth="7" markerHeight="7" orient="auto"><path d="M0,0 L10,5 L0,10 z" fill="#16324f"/></marker>
    <marker id="b" viewBox="0 0 10 10" refX="9" refY="5" markerWidth="5" markerHeight="5" orient="auto"><path d="M0,0 L10,5 L0,10 z" fill="#b3541e"/></marker>
    <marker id="c" viewBox="0 0 10 10" refX="9" refY="5" markerWidth="6" markerHeight="6" orient="auto"><path d="M0,0 L10,5 L0,10 z" fill="#52606d"/></marker>
    <marker id="dm" viewBox="0 0 10 10" refX="9" refY="5" markerWidth="6" markerHeight="6" orient="auto"><path d="M0,0 L10,5 L0,10 z" fill="#9aa5b1"/></marker>
    <marker id="h0" viewBox="0 0 10 10" refX="9" refY="5" markerWidth="6" markerHeight="6" orient="auto"><path d="M0,0 L10,5 L0,10 z" fill="#1f5a96"/></marker>
    <marker id="h1" viewBox="0 0 10 10" refX="9" refY="5" markerWidth="6" markerHeight="6" orient="auto"><path d="M0,0 L10,5 L0,10 z" fill="#b3541e"/></marker>
    <marker id="h2" viewBox="0 0 10 10" refX="9" refY="5" markerWidth="6" markerHeight="6" orient="auto"><path d="M0,0 L10,5 L0,10 z" fill="#23734d"/></marker>
    <marker id="h3" viewBox="0 0 10 10" refX="9" refY="5" markerWidth="6" markerHeight="6" orient="auto"><path d="M0,0 L10,5 L0,10 z" fill="#6a4c9c"/></marker>
  </defs>
  <rect width="760" height="392" rx="8" fill="#ffffff"/>
  <text x="46" y="24" text-anchor="middle" class="note b">input</text>
  <text x="160" y="24" text-anchor="middle" class="note b">project, cut into heads</text>
  <text x="360" y="24" text-anchor="middle" class="note b">attend: one head each</text>
  <text x="360" y="41" text-anchor="middle" class="note">masked scaled dot-product</text>
  <text x="552" y="24" text-anchor="middle" class="note b">concatenate</text>
  <text x="632" y="24" text-anchor="middle" class="note b">project</text>
  <text x="712" y="24" text-anchor="middle" class="note b">output</text>
  <rect class="box" x="14" y="168" width="64" height="64" rx="2"/>
  <text x="46" y="206" text-anchor="middle" class="m" style="font-size:19px"><tspan class="i">H</tspan></text>
  <text x="46" y="252" text-anchor="middle" class="m note" style="font-size:14px"><tspan class="i">T</tspan><tspan> × </tspan><tspan class="i">d</tspan></text>
  <line class="ln" x1="78" y1="200" x2="90" y2="200"/>
  <line class="ln" x1="90" y1="92" x2="90" y2="308"/>
  <line class="ln" x1="90" y1="92" x2="96" y2="92" marker-end="url(#a)"/>
  <rect class="op" x="98" y="78" width="42" height="28" rx="4"/>
  <text x="119" y="97" text-anchor="middle" class="m" style="font-size:15px"><tspan class="i">W</tspan><tspan dy="3.6" font-size="10.2" class="i">Q</tspan></text>
  <line class="ln" x1="140" y1="92" x2="156" y2="92" marker-end="url(#a)"/>
  <rect x="158" y="60" width="16" height="64" fill="#dbe7f5" stroke="#ffffff" stroke-width="1"/>
  <text x="166" y="96" text-anchor="middle" class="b" style="font-size:12px;fill:#1f5a96">1</text>
  <rect x="174" y="60" width="16" height="64" fill="#f8e2d3" stroke="#ffffff" stroke-width="1"/>
  <text x="182" y="96" text-anchor="middle" class="b" style="font-size:12px;fill:#b3541e">2</text>
  <rect x="190" y="60" width="16" height="64" fill="#d9efe3" stroke="#ffffff" stroke-width="1"/>
  <text x="198" y="96" text-anchor="middle" class="b" style="font-size:12px;fill:#23734d">3</text>
  <rect x="206" y="60" width="16" height="64" fill="#e8e0f3" stroke="#ffffff" stroke-width="1"/>
  <text x="214" y="96" text-anchor="middle" class="b" style="font-size:12px;fill:#6a4c9c">4</text>
  <rect x="158" y="60" width="64" height="64" fill="none" stroke="#16324f" stroke-width="1.5"/>
  <text x="190" y="54" text-anchor="middle" class="m" style="font-size:17px"><tspan class="i">Q</tspan></text>
  <line class="ln" x1="90" y1="200" x2="96" y2="200" marker-end="url(#a)"/>
  <rect class="op" x="98" y="186" width="42" height="28" rx="4"/>
  <text x="119" y="205" text-anchor="middle" class="m" style="font-size:15px"><tspan class="i">W</tspan><tspan dy="3.6" font-size="10.2" class="i">K</tspan></text>
  <line class="ln" x1="140" y1="200" x2="156" y2="200" marker-end="url(#a)"/>
  <rect x="158" y="168" width="16" height="64" fill="#dbe7f5" stroke="#ffffff" stroke-width="1"/>
  <text x="166" y="204" text-anchor="middle" class="b" style="font-size:12px;fill:#1f5a96">1</text>
  <rect x="174" y="168" width="16" height="64" fill="#f8e2d3" stroke="#ffffff" stroke-width="1"/>
  <text x="182" y="204" text-anchor="middle" class="b" style="font-size:12px;fill:#b3541e">2</text>
  <rect x="190" y="168" width="16" height="64" fill="#d9efe3" stroke="#ffffff" stroke-width="1"/>
  <text x="198" y="204" text-anchor="middle" class="b" style="font-size:12px;fill:#23734d">3</text>
  <rect x="206" y="168" width="16" height="64" fill="#e8e0f3" stroke="#ffffff" stroke-width="1"/>
  <text x="214" y="204" text-anchor="middle" class="b" style="font-size:12px;fill:#6a4c9c">4</text>
  <rect x="158" y="168" width="64" height="64" fill="none" stroke="#16324f" stroke-width="1.5"/>
  <text x="190" y="162" text-anchor="middle" class="m" style="font-size:17px"><tspan class="i">K</tspan></text>
  <line class="ln" x1="90" y1="308" x2="96" y2="308" marker-end="url(#a)"/>
  <rect class="op" x="98" y="294" width="42" height="28" rx="4"/>
  <text x="119" y="313" text-anchor="middle" class="m" style="font-size:15px"><tspan class="i">W</tspan><tspan dy="3.6" font-size="10.2" class="i">V</tspan></text>
  <line class="ln" x1="140" y1="308" x2="156" y2="308" marker-end="url(#a)"/>
  <rect x="158" y="276" width="16" height="64" fill="#dbe7f5" stroke="#ffffff" stroke-width="1"/>
  <text x="166" y="312" text-anchor="middle" class="b" style="font-size:12px;fill:#1f5a96">1</text>
  <rect x="174" y="276" width="16" height="64" fill="#f8e2d3" stroke="#ffffff" stroke-width="1"/>
  <text x="182" y="312" text-anchor="middle" class="b" style="font-size:12px;fill:#b3541e">2</text>
  <rect x="190" y="276" width="16" height="64" fill="#d9efe3" stroke="#ffffff" stroke-width="1"/>
  <text x="198" y="312" text-anchor="middle" class="b" style="font-size:12px;fill:#23734d">3</text>
  <rect x="206" y="276" width="16" height="64" fill="#e8e0f3" stroke="#ffffff" stroke-width="1"/>
  <text x="214" y="312" text-anchor="middle" class="b" style="font-size:12px;fill:#6a4c9c">4</text>
  <rect x="158" y="276" width="64" height="64" fill="none" stroke="#16324f" stroke-width="1.5"/>
  <text x="190" y="270" text-anchor="middle" class="m" style="font-size:17px"><tspan class="i">V</tspan></text>
  <path class="rule" d="M158,346 v6 h16 v-6"/>
  <text x="150" y="368" text-anchor="start" class="m note" style="font-size:14px"><tspan class="i">d</tspan><tspan dy="3.4" font-size="9.5" class="i">k</tspan><tspan dy="-3.4"> = </tspan><tspan class="i">d</tspan><tspan> / </tspan><tspan class="i">n</tspan><tspan dy="3.4" font-size="9.5" class="i">h</tspan></text>
  <path class="rule" d="M232,60 q8,0 8,10 v118 q0,12 10,12 q-10,0 -10,12 v118 q0,10 -8,10"/>
  <line x1="252" y1="200" x2="288" y2="80" style="fill:none;stroke:#1f5a96;stroke-width:1.5" marker-end="url(#h0)"/>
  <rect x="290" y="56" width="140" height="48" rx="6" style="fill:#ffffff;stroke:#1f5a96;stroke-width:1.5"/>
  <text x="304" y="76" text-anchor="start" class="b" style="font-size:14px;fill:#1f5a96">head 1</text>
  <text x="304" y="96" text-anchor="start" class="m" style="font-size:15px"><tspan class="i">A</tspan><tspan dy="-5.4" font-size="10.2">(1)</tspan><tspan dy="5.4"> =</tspan></text>
  <rect x="384" y="62" width="6" height="6" fill="#1f5a96" fill-opacity="0.25"/>
  <rect x="384" y="68" width="6" height="6" fill="#1f5a96" fill-opacity="0.40"/>
  <rect x="390" y="68" width="6" height="6" fill="#1f5a96" fill-opacity="0.85"/>
  <rect x="384" y="74" width="6" height="6" fill="#1f5a96" fill-opacity="0.55"/>
  <rect x="390" y="74" width="6" height="6" fill="#1f5a96" fill-opacity="1.00"/>
  <rect x="396" y="74" width="6" height="6" fill="#1f5a96" fill-opacity="0.55"/>
  <rect x="384" y="80" width="6" height="6" fill="#1f5a96" fill-opacity="0.70"/>
  <rect x="390" y="80" width="6" height="6" fill="#1f5a96" fill-opacity="0.25"/>
  <rect x="396" y="80" width="6" height="6" fill="#1f5a96" fill-opacity="0.70"/>
  <rect x="402" y="80" width="6" height="6" fill="#1f5a96" fill-opacity="0.25"/>
  <rect x="384" y="86" width="6" height="6" fill="#1f5a96" fill-opacity="0.85"/>
  <rect x="390" y="86" width="6" height="6" fill="#1f5a96" fill-opacity="0.40"/>
  <rect x="396" y="86" width="6" height="6" fill="#1f5a96" fill-opacity="0.85"/>
  <rect x="402" y="86" width="6" height="6" fill="#1f5a96" fill-opacity="0.40"/>
  <rect x="408" y="86" width="6" height="6" fill="#1f5a96" fill-opacity="0.85"/>
  <rect x="384" y="92" width="6" height="6" fill="#1f5a96" fill-opacity="1.00"/>
  <rect x="390" y="92" width="6" height="6" fill="#1f5a96" fill-opacity="0.55"/>
  <rect x="396" y="92" width="6" height="6" fill="#1f5a96" fill-opacity="1.00"/>
  <rect x="402" y="92" width="6" height="6" fill="#1f5a96" fill-opacity="0.55"/>
  <rect x="408" y="92" width="6" height="6" fill="#1f5a96" fill-opacity="1.00"/>
  <rect x="414" y="92" width="6" height="6" fill="#1f5a96" fill-opacity="0.55"/>
  <rect x="384" y="62" width="36" height="36" fill="none" stroke="#c5ced8" stroke-width="1"/>
  <line x1="430" y1="80" x2="446" y2="80" style="fill:none;stroke:#1f5a96;stroke-width:1.5" marker-end="url(#h0)"/>
  <rect x="448" y="62" width="16" height="36" style="fill:#dbe7f5;stroke:#1f5a96;stroke-width:1.5"/>
  <path d="M464,80 C490,80 492,176 518,176" style="fill:none;stroke:#1f5a96;stroke-width:1.5" marker-end="url(#h0)"/>
  <line x1="252" y1="200" x2="288" y2="160" style="fill:none;stroke:#b3541e;stroke-width:1.5" marker-end="url(#h1)"/>
  <rect x="290" y="136" width="140" height="48" rx="6" style="fill:#ffffff;stroke:#b3541e;stroke-width:1.5"/>
  <text x="304" y="156" text-anchor="start" class="b" style="font-size:14px;fill:#b3541e">head 2</text>
  <text x="304" y="176" text-anchor="start" class="m" style="font-size:15px"><tspan class="i">A</tspan><tspan dy="-5.4" font-size="10.2">(2)</tspan><tspan dy="5.4"> =</tspan></text>
  <rect x="384" y="142" width="6" height="6" fill="#b3541e" fill-opacity="1.00"/>
  <rect x="384" y="148" width="6" height="6" fill="#b3541e" fill-opacity="0.25"/>
  <rect x="390" y="148" width="6" height="6" fill="#b3541e" fill-opacity="0.70"/>
  <rect x="384" y="154" width="6" height="6" fill="#b3541e" fill-opacity="0.40"/>
  <rect x="390" y="154" width="6" height="6" fill="#b3541e" fill-opacity="0.85"/>
  <rect x="396" y="154" width="6" height="6" fill="#b3541e" fill-opacity="0.40"/>
  <rect x="384" y="160" width="6" height="6" fill="#b3541e" fill-opacity="0.55"/>
  <rect x="390" y="160" width="6" height="6" fill="#b3541e" fill-opacity="1.00"/>
  <rect x="396" y="160" width="6" height="6" fill="#b3541e" fill-opacity="0.55"/>
  <rect x="402" y="160" width="6" height="6" fill="#b3541e" fill-opacity="1.00"/>
  <rect x="384" y="166" width="6" height="6" fill="#b3541e" fill-opacity="0.70"/>
  <rect x="390" y="166" width="6" height="6" fill="#b3541e" fill-opacity="0.25"/>
  <rect x="396" y="166" width="6" height="6" fill="#b3541e" fill-opacity="0.70"/>
  <rect x="402" y="166" width="6" height="6" fill="#b3541e" fill-opacity="0.25"/>
  <rect x="408" y="166" width="6" height="6" fill="#b3541e" fill-opacity="0.70"/>
  <rect x="384" y="172" width="6" height="6" fill="#b3541e" fill-opacity="0.85"/>
  <rect x="390" y="172" width="6" height="6" fill="#b3541e" fill-opacity="0.40"/>
  <rect x="396" y="172" width="6" height="6" fill="#b3541e" fill-opacity="0.85"/>
  <rect x="402" y="172" width="6" height="6" fill="#b3541e" fill-opacity="0.40"/>
  <rect x="408" y="172" width="6" height="6" fill="#b3541e" fill-opacity="0.85"/>
  <rect x="414" y="172" width="6" height="6" fill="#b3541e" fill-opacity="0.40"/>
  <rect x="384" y="142" width="36" height="36" fill="none" stroke="#c5ced8" stroke-width="1"/>
  <line x1="430" y1="160" x2="446" y2="160" style="fill:none;stroke:#b3541e;stroke-width:1.5" marker-end="url(#h1)"/>
  <rect x="448" y="142" width="16" height="36" style="fill:#f8e2d3;stroke:#b3541e;stroke-width:1.5"/>
  <path d="M464,160 C490,160 492,192 518,192" style="fill:none;stroke:#b3541e;stroke-width:1.5" marker-end="url(#h1)"/>
  <line x1="252" y1="200" x2="288" y2="240" style="fill:none;stroke:#23734d;stroke-width:1.5" marker-end="url(#h2)"/>
  <rect x="290" y="216" width="140" height="48" rx="6" style="fill:#ffffff;stroke:#23734d;stroke-width:1.5"/>
  <text x="304" y="236" text-anchor="start" class="b" style="font-size:14px;fill:#23734d">head 3</text>
  <text x="304" y="256" text-anchor="start" class="m" style="font-size:15px"><tspan class="i">A</tspan><tspan dy="-5.4" font-size="10.2">(3)</tspan><tspan dy="5.4"> =</tspan></text>
  <rect x="384" y="222" width="6" height="6" fill="#23734d" fill-opacity="0.85"/>
  <rect x="384" y="228" width="6" height="6" fill="#23734d" fill-opacity="1.00"/>
  <rect x="390" y="228" width="6" height="6" fill="#23734d" fill-opacity="0.55"/>
  <rect x="384" y="234" width="6" height="6" fill="#23734d" fill-opacity="0.25"/>
  <rect x="390" y="234" width="6" height="6" fill="#23734d" fill-opacity="0.70"/>
  <rect x="396" y="234" width="6" height="6" fill="#23734d" fill-opacity="0.25"/>
  <rect x="384" y="240" width="6" height="6" fill="#23734d" fill-opacity="0.40"/>
  <rect x="390" y="240" width="6" height="6" fill="#23734d" fill-opacity="0.85"/>
  <rect x="396" y="240" width="6" height="6" fill="#23734d" fill-opacity="0.40"/>
  <rect x="402" y="240" width="6" height="6" fill="#23734d" fill-opacity="0.85"/>
  <rect x="384" y="246" width="6" height="6" fill="#23734d" fill-opacity="0.55"/>
  <rect x="390" y="246" width="6" height="6" fill="#23734d" fill-opacity="1.00"/>
  <rect x="396" y="246" width="6" height="6" fill="#23734d" fill-opacity="0.55"/>
  <rect x="402" y="246" width="6" height="6" fill="#23734d" fill-opacity="1.00"/>
  <rect x="408" y="246" width="6" height="6" fill="#23734d" fill-opacity="0.55"/>
  <rect x="384" y="252" width="6" height="6" fill="#23734d" fill-opacity="0.70"/>
  <rect x="390" y="252" width="6" height="6" fill="#23734d" fill-opacity="0.25"/>
  <rect x="396" y="252" width="6" height="6" fill="#23734d" fill-opacity="0.70"/>
  <rect x="402" y="252" width="6" height="6" fill="#23734d" fill-opacity="0.25"/>
  <rect x="408" y="252" width="6" height="6" fill="#23734d" fill-opacity="0.70"/>
  <rect x="414" y="252" width="6" height="6" fill="#23734d" fill-opacity="0.25"/>
  <rect x="384" y="222" width="36" height="36" fill="none" stroke="#c5ced8" stroke-width="1"/>
  <line x1="430" y1="240" x2="446" y2="240" style="fill:none;stroke:#23734d;stroke-width:1.5" marker-end="url(#h2)"/>
  <rect x="448" y="222" width="16" height="36" style="fill:#d9efe3;stroke:#23734d;stroke-width:1.5"/>
  <path d="M464,240 C490,240 492,208 518,208" style="fill:none;stroke:#23734d;stroke-width:1.5" marker-end="url(#h2)"/>
  <line x1="252" y1="200" x2="288" y2="320" style="fill:none;stroke:#6a4c9c;stroke-width:1.5" marker-end="url(#h3)"/>
  <rect x="290" y="296" width="140" height="48" rx="6" style="fill:#ffffff;stroke:#6a4c9c;stroke-width:1.5"/>
  <text x="304" y="316" text-anchor="start" class="b" style="font-size:14px;fill:#6a4c9c">head 4</text>
  <text x="304" y="336" text-anchor="start" class="m" style="font-size:15px"><tspan class="i">A</tspan><tspan dy="-5.4" font-size="10.2">(4)</tspan><tspan dy="5.4"> =</tspan></text>
  <rect x="384" y="302" width="6" height="6" fill="#6a4c9c" fill-opacity="0.70"/>
  <rect x="384" y="308" width="6" height="6" fill="#6a4c9c" fill-opacity="0.85"/>
  <rect x="390" y="308" width="6" height="6" fill="#6a4c9c" fill-opacity="0.40"/>
  <rect x="384" y="314" width="6" height="6" fill="#6a4c9c" fill-opacity="1.00"/>
  <rect x="390" y="314" width="6" height="6" fill="#6a4c9c" fill-opacity="0.55"/>
  <rect x="396" y="314" width="6" height="6" fill="#6a4c9c" fill-opacity="1.00"/>
  <rect x="384" y="320" width="6" height="6" fill="#6a4c9c" fill-opacity="0.25"/>
  <rect x="390" y="320" width="6" height="6" fill="#6a4c9c" fill-opacity="0.70"/>
  <rect x="396" y="320" width="6" height="6" fill="#6a4c9c" fill-opacity="0.25"/>
  <rect x="402" y="320" width="6" height="6" fill="#6a4c9c" fill-opacity="0.70"/>
  <rect x="384" y="326" width="6" height="6" fill="#6a4c9c" fill-opacity="0.40"/>
  <rect x="390" y="326" width="6" height="6" fill="#6a4c9c" fill-opacity="0.85"/>
  <rect x="396" y="326" width="6" height="6" fill="#6a4c9c" fill-opacity="0.40"/>
  <rect x="402" y="326" width="6" height="6" fill="#6a4c9c" fill-opacity="0.85"/>
  <rect x="408" y="326" width="6" height="6" fill="#6a4c9c" fill-opacity="0.40"/>
  <rect x="384" y="332" width="6" height="6" fill="#6a4c9c" fill-opacity="0.55"/>
  <rect x="390" y="332" width="6" height="6" fill="#6a4c9c" fill-opacity="1.00"/>
  <rect x="396" y="332" width="6" height="6" fill="#6a4c9c" fill-opacity="0.55"/>
  <rect x="402" y="332" width="6" height="6" fill="#6a4c9c" fill-opacity="1.00"/>
  <rect x="408" y="332" width="6" height="6" fill="#6a4c9c" fill-opacity="0.55"/>
  <rect x="414" y="332" width="6" height="6" fill="#6a4c9c" fill-opacity="1.00"/>
  <rect x="384" y="302" width="36" height="36" fill="none" stroke="#c5ced8" stroke-width="1"/>
  <line x1="430" y1="320" x2="446" y2="320" style="fill:none;stroke:#6a4c9c;stroke-width:1.5" marker-end="url(#h3)"/>
  <rect x="448" y="302" width="16" height="36" style="fill:#e8e0f3;stroke:#6a4c9c;stroke-width:1.5"/>
  <path d="M464,320 C490,320 492,224 518,224" style="fill:none;stroke:#6a4c9c;stroke-width:1.5" marker-end="url(#h3)"/>
  <text x="456" y="362" text-anchor="middle" class="m note" style="font-size:15px"><tspan class="i">V̄</tspan><tspan dy="-5.4" font-size="10.2">(</tspan><tspan font-size="10.2" class="i">r</tspan><tspan font-size="10.2">)</tspan></text>
  <path class="rule" d="M456,346 V342"/>
  <rect x="520" y="168" width="16" height="64" fill="#dbe7f5" stroke="#ffffff" stroke-width="1"/>
  <text x="528" y="204" text-anchor="middle" class="b" style="font-size:12px;fill:#1f5a96">1</text>
  <rect x="536" y="168" width="16" height="64" fill="#f8e2d3" stroke="#ffffff" stroke-width="1"/>
  <text x="544" y="204" text-anchor="middle" class="b" style="font-size:12px;fill:#b3541e">2</text>
  <rect x="552" y="168" width="16" height="64" fill="#d9efe3" stroke="#ffffff" stroke-width="1"/>
  <text x="560" y="204" text-anchor="middle" class="b" style="font-size:12px;fill:#23734d">3</text>
  <rect x="568" y="168" width="16" height="64" fill="#e8e0f3" stroke="#ffffff" stroke-width="1"/>
  <text x="576" y="204" text-anchor="middle" class="b" style="font-size:12px;fill:#6a4c9c">4</text>
  <rect x="520" y="168" width="64" height="64" fill="none" stroke="#16324f" stroke-width="1.5"/>
  <text x="552" y="252" text-anchor="middle" class="m note" style="font-size:14px"><tspan class="i">T</tspan><tspan> × </tspan><tspan class="i">d</tspan></text>
  <line class="ln" x1="584" y1="200" x2="598" y2="200" marker-end="url(#a)"/>
  <rect class="op" x="600" y="186" width="64" height="28" rx="4"/>
  <text x="632" y="205" text-anchor="middle" class="m" style="font-size:15px"><tspan class="i">W</tspan><tspan dy="3.6" font-size="10.2">proj</tspan></text>
  <line class="ln" x1="664" y1="200" x2="678" y2="200" marker-end="url(#a)"/>
  <rect class="box" x="680" y="168" width="64" height="64" rx="2"/>
  <text x="712" y="205" text-anchor="middle" class="m" style="font-size:14px"><tspan>MHA(</tspan><tspan class="i">H</tspan><tspan>)</tspan></text>
  <text x="712" y="252" text-anchor="middle" class="m note" style="font-size:14px"><tspan class="i">T</tspan><tspan> × </tspan><tspan class="i">d</tspan></text>
</svg>
